<svg width="104" height="35" viewBox="0 0 104 35" fill="none" xmlns="http://www.w3.org/2000/svg">
<path fill-rule="evenodd" clip-rule="evenodd" d="M99.0116 9.54357H95.2256V8.69779C95.2256 6.07696 96.1171 5.38784 98.676 5.38784H100.102V0H97.9733C92.1948 0 89.3737 2.62083 89.3737 8.49942V9.53312H83.3644V8.68735C83.3644 6.06651 84.2558 5.37739 86.8147 5.37739H88.241V0H86.1121C80.3335 0 77.5124 2.62083 77.5124 8.49942V9.53312H73.716V14.0647L73.6635 14.0752C72.0799 11.0367 68.8813 8.95882 65.1897 8.95882C61.9281 8.95882 59.0546 10.5877 57.3346 13.0623L57.2612 13.031L58.8868 9.54357H52.9614L48.5042 19.3482L44.3198 9.54357H37.6393H37.5764H31.7768V11.966H31.7034C30.5813 10.1596 28.7565 8.96927 25.8515 8.96927C23.303 8.96927 20.8699 10.2222 19.2654 12.3836L19.2024 12.3523C19.538 11.329 19.6953 10.2118 19.6953 9.01103C19.6953 4.16618 16.5596 0.396783 9.69036 0.396783H0V27.3255H6.00928V18.0952H9.69036C13.5917 18.0952 16.2869 16.8631 17.881 14.8374L17.944 14.8687C17.5664 15.9442 17.3567 17.145 17.3567 18.4397C17.3567 24.1304 21.4258 27.8998 25.841 27.8998C28.746 27.8998 30.5708 26.7094 31.6929 24.903H31.7663V27.3255H37.6183V9.79415H37.6917L45.5888 25.6131L41.0897 35H46.9836L55.8874 15.9547L55.9713 15.9964C55.7615 16.7691 55.6567 17.5835 55.6567 18.4293C55.6567 23.6605 59.925 27.8893 65.1897 27.8893C70.4544 27.8893 74.7228 23.6501 74.7228 18.4293C74.7228 16.9884 74.3976 15.6205 73.8104 14.3884H77.5019V27.315H83.3539V14.3884H89.3632V27.315H95.2152V14.3884H99.0116V9.54357ZM65.6931 22.5537L66.0182 23.3264C66.0602 23.4308 65.9972 23.5456 65.8819 23.5665C65.6512 23.5979 65.4309 23.6083 65.1897 23.6083C64.959 23.6083 64.7283 23.5979 64.4975 23.5665C64.3822 23.5561 64.3193 23.4308 64.3612 23.3264L64.6863 22.5537C62.6098 22.3031 60.9947 20.5489 60.9947 18.4293C60.9947 16.1322 62.872 14.2736 65.1897 14.2736C67.5074 14.2736 69.3847 16.1322 69.3847 18.4293C69.3742 20.5594 67.7696 22.3135 65.6931 22.5537ZM27.4875 22.5746C25.1803 22.5746 23.303 20.716 23.303 18.4188C23.303 16.1217 25.1803 14.2631 27.4875 14.2631C29.7947 14.2631 31.672 16.1217 31.672 18.4188C31.672 20.716 29.8052 22.5746 27.4875 22.5746ZM9.18696 12.6969H6.00928V5.80548H9.18696C11.6725 5.80548 13.298 6.76611 13.298 9.11544C13.298 11.5066 11.662 12.6969 9.18696 12.6969Z" fill="#3A3C42"/>
<path fill-rule="evenodd" clip-rule="evenodd" d="M101.025 25.4042H100.815V26.3858H100.469V24.0364H101.277C101.696 24.0364 102 24.2974 102 24.7255C102 25.0805 101.78 25.3312 101.455 25.3938L102.168 26.3858H101.728L101.025 25.4042ZM100.815 25.0805H101.214C101.497 25.0805 101.612 24.9344 101.612 24.7255C101.612 24.5167 101.497 24.3601 101.214 24.3601H100.815V25.0805Z" fill="#3A3C42"/>
<path fill-rule="evenodd" clip-rule="evenodd" d="M99.106 25.2163C99.106 26.3753 100.05 27.315 101.214 27.315C102.378 27.315 103.322 26.3753 103.322 25.2163C103.322 24.0573 102.378 23.1175 101.214 23.1175C100.05 23.1175 99.106 24.0573 99.106 25.2163ZM99.4206 25.2163C99.4206 24.2348 100.228 23.4308 101.214 23.4308C102.2 23.4308 103.007 24.2348 103.007 25.2163C103.007 26.1978 102.2 27.0018 101.214 27.0018C100.228 27.0018 99.4206 26.1978 99.4206 25.2163Z" fill="#3A3C42"/>
</svg>
