<svg width="289" height="35" viewBox="0 0 289 35" fill="none" xmlns="http://www.w3.org/2000/svg">
<g clip-path="url(#clip0)">
<path d="M6.2237 26.7061H0V2.76343H9.90782C12.5967 2.76343 14.6552 3.46177 16.0834 4.85845C17.5116 6.25513 18.2265 8.22409 18.2265 10.7653C18.2265 13.3049 17.5116 15.2739 16.0834 16.6722C14.6552 18.0689 12.595 18.7672 9.90782 18.7672H6.2237V26.7061ZM6.2237 13.7511H8.2872C10.573 13.7511 11.7175 12.7558 11.7175 10.767C11.7175 8.77812 10.5746 7.78286 8.2872 7.78286H6.2237V13.7511Z" fill="#242220"/>
<path d="M31.6658 10.417H37.4449V26.7061H31.6658V24.8963C30.4383 26.4423 28.7762 27.2136 26.6812 27.2136C25.4952 27.2136 24.4054 26.9963 23.4101 26.5634C22.4149 26.1305 21.5473 25.5217 20.8058 24.7371C20.0644 23.9542 19.4888 23.0335 19.0758 21.9753C18.6627 20.917 18.457 19.7641 18.457 18.5134C18.457 17.3489 18.6577 16.2425 19.0608 15.1959C19.4622 14.1475 20.0246 13.2319 20.7445 12.4489C21.4644 11.666 22.322 11.0473 23.3172 10.5911C24.3125 10.1366 25.4122 9.90771 26.6198 9.90771C28.6518 9.90771 30.3355 10.6177 31.6691 12.0359V10.6166L31.6658 10.417ZM24.4253 18.5134C24.4253 19.0426 24.5198 19.5352 24.7106 19.9897C24.9013 20.4459 25.1601 20.8423 25.4885 21.1807C25.817 21.5191 26.2085 21.7845 26.663 21.9753C27.1175 22.166 27.6101 22.2606 28.1393 22.2606C28.6468 22.2606 29.1279 22.166 29.584 21.9753C30.0386 21.7845 30.43 21.5207 30.7585 21.1807C31.0869 20.8423 31.3506 20.4508 31.553 20.0063C31.7537 19.5617 31.8549 19.0857 31.8549 18.5781C31.8549 18.0705 31.7537 17.5895 31.553 17.1333C31.3523 16.6788 31.0869 16.2807 30.7585 15.9423C30.43 15.6039 30.0386 15.3385 29.584 15.1478C29.1279 14.957 28.6468 14.8625 28.1393 14.8625C27.6101 14.8625 27.1175 14.957 26.663 15.1478C26.2068 15.3385 25.8153 15.6039 25.4885 15.9423C25.1601 16.2807 24.9013 16.6672 24.7106 17.1018C24.5198 17.5347 24.4253 18.0058 24.4253 18.5134Z" fill="#242220"/>
<path d="M46.4657 24.4833L38.5898 10.417H45.2581L49.609 18.7689L53.8323 10.417H60.4375L47.3548 34.8357H40.9088L46.4657 24.4833Z" fill="#242220"/>
<path d="M59.5664 18.4189C59.5664 17.213 59.8102 16.085 60.2963 15.0367C60.7823 13.9884 61.4607 13.0793 62.3283 12.3064C63.1958 11.5334 64.2275 10.9246 65.4252 10.4801C66.6211 10.0355 67.9283 9.81323 69.3465 9.81323C70.7432 9.81323 72.0403 10.0305 73.2363 10.4635C74.4323 10.8981 75.469 11.5002 76.3482 12.2732C77.2256 13.0462 77.9091 13.9668 78.3967 15.035C78.8844 16.1049 79.1266 17.2843 79.1266 18.5749C79.1266 19.867 78.8778 21.0464 78.3801 22.1147C77.8825 23.1846 77.1991 24.1052 76.3316 24.8765C75.464 25.6495 74.4207 26.2467 73.2031 26.6713C71.9856 27.0943 70.6685 27.3066 69.2503 27.3066C67.8536 27.3066 66.5614 27.0943 65.3754 26.6713C64.1894 26.2483 63.1692 25.6445 62.3117 24.8616C61.4541 24.0787 60.7823 23.1414 60.2946 22.0516C59.8086 20.9651 59.5664 19.7526 59.5664 18.4189ZM65.6309 18.482C65.6309 19.0327 65.7304 19.5353 65.9328 19.9898C66.1335 20.446 66.3989 20.8424 66.7273 21.1808C67.0557 21.5192 67.4472 21.7846 67.9017 21.9753C68.3562 22.1661 68.8389 22.2606 69.3465 22.2606C69.8541 22.2606 70.3351 22.1661 70.7913 21.9753C71.2458 21.7846 71.6373 21.5208 71.9657 21.1808C72.2941 20.8424 72.5579 20.446 72.7602 19.9898C72.961 19.5353 73.0621 19.0426 73.0621 18.5135C73.0621 18.0059 72.961 17.5249 72.7602 17.0687C72.5595 16.6142 72.2941 16.2161 71.9657 15.8777C71.6373 15.5393 71.2458 15.2739 70.7913 15.0831C70.3351 14.8924 69.8541 14.7978 69.3465 14.7978C68.8389 14.7978 68.3562 14.8924 67.9017 15.0831C67.4456 15.2739 67.0541 15.5393 66.7273 15.8777C66.3989 16.2161 66.1351 16.6076 65.9328 17.0521C65.7304 17.4983 65.6309 17.9744 65.6309 18.482Z" fill="#242220"/>
<path d="M87.3814 15.75V26.7062H81.6338V15.2109H79.5703V10.4154H81.6338V7.97038C81.6338 6.61517 81.7615 5.53697 82.0153 4.73081C82.226 4.05403 82.566 3.4237 83.0322 2.84147C83.4983 2.25924 84.0423 1.75664 84.6677 1.33365C85.2914 0.91066 85.9649 0.582226 86.6848 0.349998C87.4047 0.11777 88.113 0 88.813 0C89.299 0 89.7502 0.0530791 90.1632 0.15924C90.5762 0.265401 90.9942 0.41303 91.4172 0.603788V5.62156C91.0357 5.43081 90.6807 5.28815 90.354 5.1936C90.0255 5.09905 89.6822 5.05095 89.3222 5.05095C89.0883 5.05095 88.8511 5.08744 88.6073 5.16209C88.3634 5.23673 88.1362 5.38934 87.9239 5.62322C87.7115 5.85711 87.5689 6.19052 87.4959 6.62346C87.4213 7.05806 87.3848 7.64526 87.3848 8.38507V10.4171H91.4172V15.2126H87.3814V15.75Z" fill="#242220"/>
<path d="M99.7403 15.4V26.7062H93.9926V15.2109H91.2656V10.4154H93.9926V7.97038C93.9926 6.61517 94.1204 5.53697 94.3742 4.73081C94.5848 4.05403 94.9249 3.4237 95.391 2.84147C95.8571 2.25924 96.4012 1.75664 97.0265 1.33365C97.6502 0.91066 98.3237 0.582226 99.0436 0.349998C99.7635 0.11777 100.472 0 101.172 0C101.658 0 102.109 0.0530791 102.522 0.15924C102.935 0.265401 103.353 0.41303 103.776 0.603788V5.62156C103.395 5.43081 103.04 5.28815 102.713 5.1936C102.384 5.09905 102.041 5.05095 101.681 5.05095C101.447 5.05095 101.21 5.08744 100.966 5.16209C100.722 5.23673 100.495 5.38934 100.283 5.62322C100.07 5.85711 99.9277 6.19052 99.8547 6.62346C99.7801 7.05806 99.7436 7.64526 99.7436 8.38507V10.4171H103.776V15.2126H99.7403V15.4Z" fill="#242220"/>
<path d="M106.745 22.5967H107.418C107.646 22.5967 107.818 22.5479 107.939 22.4473C108.06 22.3468 108.121 22.2032 108.121 22.0166C108.121 21.6346 107.888 21.4451 107.418 21.4451H106.745V22.5967ZM108.961 22.0137C108.961 22.2808 108.886 22.5163 108.74 22.7173C108.593 22.9126 108.386 23.0504 108.118 23.1395L109.102 24.8654H108.178L107.306 23.2285H106.745V24.8654H105.913V20.7903H107.508C107.977 20.7903 108.334 20.8966 108.581 21.112C108.835 21.3187 108.961 21.6203 108.961 22.0137ZM107.335 26.0687C107.905 26.0687 108.426 25.9395 108.901 25.6781C109.381 25.4168 109.764 25.0463 110.044 24.5639C110.331 24.0757 110.475 23.5099 110.475 22.8666C110.475 22.2234 110.331 21.6634 110.044 21.1809C109.761 20.6927 109.381 20.3165 108.901 20.058C108.426 19.7967 107.905 19.6675 107.335 19.6675C106.759 19.6675 106.232 19.7967 105.749 20.058C105.274 20.3194 104.897 20.6927 104.615 21.1809C104.333 21.6634 104.195 22.2234 104.195 22.8666C104.195 23.5099 104.336 24.0757 104.615 24.5639C104.897 25.0463 105.274 25.4168 105.749 25.6781C106.232 25.9395 106.762 26.0687 107.335 26.0687ZM107.335 19.1333C108.017 19.1333 108.642 19.2884 109.212 19.5957C109.782 19.8972 110.231 20.3308 110.567 20.8995C110.901 21.4623 111.068 22.1171 111.068 22.8666C111.068 23.6104 110.901 24.2652 110.567 24.8338C110.233 25.3967 109.782 25.8303 109.212 26.1376C108.645 26.4449 108.017 26.6 107.335 26.6C106.653 26.6 106.028 26.4449 105.458 26.1376C104.891 25.8303 104.439 25.3938 104.102 24.8338C103.769 24.2652 103.602 23.6104 103.602 22.8666C103.602 22.1171 103.769 21.4623 104.102 20.8995C104.436 20.3308 104.888 19.8972 105.458 19.5957C106.028 19.2884 106.653 19.1333 107.335 19.1333Z" fill="#242220"/>
</g>
<path d="M117.133 19.5999V26.5115H118.149V25.8203C118.501 26.3634 119.094 26.6102 119.698 26.6102C121.056 26.6102 121.961 25.6327 121.961 24.201C121.961 22.7693 121.106 21.7326 119.798 21.7326C119.145 21.7326 118.511 22.0979 118.189 22.6607V19.5999H117.133ZM118.149 24.201C118.149 23.263 118.823 22.6706 119.527 22.6706C120.281 22.6706 120.905 23.2927 120.905 24.201C120.905 25.1094 120.281 25.692 119.527 25.692C118.823 25.692 118.149 25.1391 118.149 24.201Z" fill="#242220"/>
<path d="M126.06 21.8313L124.672 24.6947L123.374 21.8313H122.237L124.118 25.8203L122.841 28.4665H123.947L127.166 21.8313H126.06Z" fill="#242220"/>
<path d="M162.927 13.4973H159.816V26.5117H162.927V21.4804H169.916V26.5117H173.026V13.4973H169.916V18.5287H162.927V13.4973Z" fill="#242220"/>
<path fill-rule="evenodd" clip-rule="evenodd" d="M184.497 17.7236H181.387V18.5286C180.651 17.7907 179.748 17.3882 178.645 17.3882C177.976 17.3882 177.374 17.5224 176.839 17.7572C176.304 17.992 175.836 18.3274 175.434 18.7634C175.066 19.1995 174.765 19.7026 174.531 20.2728C174.297 20.8431 174.197 21.4468 174.197 22.0841C174.197 22.755 174.297 23.3923 174.531 23.9625C174.765 24.5327 175.066 25.0358 175.468 25.4719C175.869 25.9079 176.337 26.2434 176.872 26.4782C177.407 26.713 178.009 26.8471 178.645 26.8471C179.782 26.8471 180.685 26.4111 181.354 25.5725V26.5788H184.497V17.7236ZM177.575 22.9227C177.474 22.6879 177.407 22.4195 177.407 22.1177C177.407 21.8158 177.474 21.581 177.575 21.3797C177.675 21.1449 177.842 20.9101 178.009 20.7424C178.177 20.5412 178.411 20.407 178.645 20.3064C178.879 20.2058 179.146 20.1387 179.447 20.1387C179.715 20.1387 179.982 20.2058 180.217 20.3064C180.451 20.407 180.685 20.5747 180.852 20.7424C181.019 20.9101 181.186 21.1449 181.287 21.3797C181.387 21.6145 181.454 21.8829 181.454 22.1512C181.454 22.4195 181.387 22.6879 181.287 22.9227C181.186 23.1575 181.019 23.3923 180.852 23.56C180.685 23.7612 180.451 23.8954 180.217 23.996C179.982 24.0967 179.715 24.1637 179.447 24.1637C179.146 24.1637 178.879 24.0967 178.645 23.996C178.411 23.8954 178.177 23.7277 178.009 23.56C177.809 23.3923 177.675 23.1575 177.575 22.9227Z" fill="#242220"/>
<path fill-rule="evenodd" clip-rule="evenodd" d="M186.002 30.9728H189.112V25.7067C189.848 26.4782 190.751 26.8471 191.855 26.8471C192.457 26.8471 193.059 26.713 193.594 26.4782C194.129 26.2434 194.597 25.908 194.998 25.4719C195.4 25.0694 195.701 24.5663 195.935 23.996C196.169 23.4258 196.269 22.7885 196.269 22.1512C196.269 21.5139 196.169 20.8766 195.935 20.3064C195.701 19.7362 195.4 19.233 194.998 18.797C194.597 18.3609 194.129 18.0255 193.594 17.7907C193.025 17.5559 192.457 17.4218 191.821 17.4218C190.684 17.4218 189.781 17.8578 189.112 18.6964V17.7236H186.002V30.9728ZM192.891 21.3798C192.992 21.6145 193.025 21.8829 193.025 22.1512C193.025 22.4196 192.992 22.6879 192.858 22.9227C192.758 23.1575 192.59 23.3923 192.423 23.56C192.223 23.7613 192.022 23.8954 191.788 23.996C191.554 24.0967 191.286 24.1638 191.019 24.1638C190.751 24.1638 190.484 24.0967 190.249 23.996C190.015 23.8954 189.781 23.7277 189.614 23.56C189.413 23.3587 189.28 23.1575 189.179 22.9227C189.079 22.6879 189.012 22.4196 189.012 22.1512C189.012 21.8829 189.079 21.6145 189.179 21.3798C189.28 21.145 189.447 20.9102 189.614 20.7424C189.815 20.5412 190.015 20.407 190.249 20.3064C190.484 20.2058 190.751 20.1387 191.019 20.1387C191.32 20.1387 191.587 20.2058 191.821 20.3064C192.055 20.407 192.289 20.5747 192.457 20.7424C192.657 20.9102 192.791 21.145 192.891 21.3798Z" fill="#242220"/>
<path fill-rule="evenodd" clip-rule="evenodd" d="M200.316 30.9728H197.206V17.7236H200.316V18.6964C200.985 17.8578 201.888 17.4218 203.025 17.4218C203.66 17.4218 204.229 17.5559 204.797 17.7907C205.332 18.0255 205.8 18.3609 206.202 18.797C206.603 19.233 206.904 19.7362 207.138 20.3064C207.372 20.8766 207.473 21.5139 207.473 22.1512C207.473 22.7885 207.372 23.4258 207.138 23.996C206.904 24.5663 206.603 25.0694 206.202 25.4719C205.8 25.908 205.332 26.2434 204.797 26.4782C204.262 26.713 203.66 26.8471 203.058 26.8471C201.954 26.8471 201.052 26.4782 200.316 25.7067V30.9728ZM204.262 22.1512C204.262 21.8829 204.229 21.6145 204.128 21.3798C204.028 21.145 203.894 20.9102 203.694 20.7424C203.493 20.5747 203.292 20.407 203.058 20.3064C202.824 20.2058 202.556 20.1387 202.255 20.1387C201.988 20.1387 201.72 20.2058 201.486 20.3064C201.252 20.407 201.052 20.5412 200.851 20.7424C200.684 20.9102 200.516 21.145 200.416 21.3798C200.316 21.6145 200.249 21.8829 200.249 22.1512C200.249 22.4196 200.316 22.6879 200.416 22.9227C200.516 23.1575 200.65 23.3587 200.851 23.56C201.018 23.7277 201.252 23.8954 201.486 23.996C201.72 24.0967 201.988 24.1638 202.255 24.1638C202.523 24.1638 202.791 24.0967 203.025 23.996C203.259 23.8954 203.459 23.7613 203.66 23.56C203.827 23.3923 203.994 23.1575 204.095 22.9227C204.195 22.6879 204.262 22.4196 204.262 22.1512Z" fill="#242220"/>
<path d="M207.038 17.7236L211.318 25.3377L208.309 30.9728H211.787L218.877 17.7236L215.298 17.7236L213.024 22.2518L210.65 17.7236H207.038Z" fill="#242220"/>
<path d="M222.332 13.4973H225.655L229.997 22.8856L234.314 13.4973H237.67V26.5619H234.548V19.4643L231.486 26.1052L231.494 26.1241L231.259 26.5955H228.709L225.453 19.4976V26.5619H222.332V13.4973Z" fill="#242220"/>
<path fill-rule="evenodd" clip-rule="evenodd" d="M238.408 22.0162C238.408 19.3561 240.422 17.2348 243.308 17.2348C246.194 17.2348 248.174 19.3561 248.208 22.0162C248.208 24.6426 246.194 26.7976 243.308 26.7976C240.388 26.7976 238.408 24.6426 238.408 22.0162ZM241.328 22.0162C241.328 23.5314 242.268 24.4069 243.308 24.4069C244.348 24.4069 245.288 23.5314 245.288 22.0162C245.288 20.501 244.348 19.6255 243.308 19.6255C242.268 19.6255 241.328 20.501 241.328 22.0162Z" fill="#242220"/>
<path fill-rule="evenodd" clip-rule="evenodd" d="M264.452 24.6426C263.177 24.6426 262.539 23.9691 262.539 22.6223H269.083V22.2856C269.083 21.5111 268.949 20.804 268.748 20.1979C268.546 19.5582 268.211 19.0531 267.808 18.6154C267.405 18.1776 266.902 17.8746 266.298 17.6389C265.694 17.4032 265.022 17.3022 264.284 17.3022C263.512 17.3022 262.841 17.4032 262.237 17.6389C261.633 17.8746 261.129 18.2113 260.693 18.6154C260.29 19.0194 259.955 19.5245 259.72 20.1306C259.485 20.703 259.384 21.3764 259.384 22.1172C259.384 22.858 259.518 23.4977 259.753 24.0702C260.022 24.6426 260.357 25.1477 260.794 25.5517C261.264 25.9894 261.767 26.2925 262.405 26.5282C263.009 26.7639 263.714 26.8649 264.452 26.8649C266.868 26.8649 268.412 25.8211 269.016 23.8008H265.996C265.627 24.3732 265.123 24.6426 264.452 24.6426ZM265.593 19.7602C265.929 20.0296 266.13 20.3663 266.231 20.804H262.673C262.74 20.3326 262.942 19.9959 263.244 19.7265C263.546 19.4908 263.948 19.3562 264.418 19.3562C264.888 19.3562 265.257 19.4908 265.593 19.7602Z" fill="#242220"/>
<path d="M252.202 17.6726H249.114V26.4945L252.235 26.4945V21.7468C252.235 21.1744 252.403 20.703 252.672 20.4C252.94 20.0969 253.343 19.9286 253.88 19.9286C254.048 19.9286 254.249 19.9622 254.417 20.0296C254.585 20.0969 254.753 20.1979 254.887 20.3326C255.055 20.501 255.155 20.703 255.222 20.9724C255.29 21.2418 255.323 21.6121 255.323 22.0499V26.5619H258.444V20.905C258.444 20.4336 258.411 19.9959 258.31 19.6255C258.243 19.2551 258.075 18.9184 257.807 18.6154C257.471 18.2787 257.102 17.9756 256.666 17.7736C256.196 17.5716 255.692 17.4705 255.055 17.4705C254.451 17.4705 253.947 17.5716 253.511 17.7399C253.074 17.9083 252.638 18.2787 252.202 18.7837V17.6726Z" fill="#242220"/>
<path d="M272.943 25.316L268.647 17.6726H272.272L274.655 22.2182L276.937 17.6726L280.528 17.6726L273.413 30.9728H269.922L272.943 25.316Z" fill="#242220"/>
<path d="M137.606 20.9549C137.606 24.3433 140.346 27.0834 143.734 27.0834C147.123 27.0834 149.863 24.3224 149.863 20.9549V20.8503H147.583V20.9549C147.583 23.0883 145.847 24.8035 143.734 24.8035C141.601 24.8035 139.886 23.0674 139.886 20.9549V20.8503H137.606V20.9549Z" fill="#242220"/>
<path fill-rule="evenodd" clip-rule="evenodd" d="M143.734 31.2666C137.941 31.2666 133.234 26.5604 133.234 20.7666C133.234 14.9728 137.941 10.2666 143.734 10.2666C149.528 10.2666 154.234 14.9728 154.234 20.7666C154.234 26.5604 149.528 31.2666 143.734 31.2666ZM143.734 12.6929C139.279 12.6929 135.661 16.3114 135.661 20.7666C135.661 25.2218 139.279 28.8403 143.734 28.8403C148.19 28.8403 151.808 25.2218 151.808 20.7666C151.808 16.3114 148.21 12.6929 143.734 12.6929Z" fill="#242220"/>
<path d="M284.077 22.5967H284.75C284.978 22.5967 285.151 22.5479 285.271 22.4473C285.392 22.3468 285.453 22.2032 285.453 22.0166C285.453 21.6346 285.22 21.4451 284.75 21.4451H284.077V22.5967ZM286.293 22.0137C286.293 22.2808 286.218 22.5163 286.072 22.7173C285.925 22.9126 285.718 23.0504 285.45 23.1395L286.434 24.8654H285.51L284.638 23.2285H284.077V24.8654H283.245V20.7903H284.84C285.309 20.7903 285.666 20.8966 285.913 21.112C286.167 21.3187 286.293 21.6203 286.293 22.0137ZM284.667 26.0687C285.237 26.0687 285.758 25.9395 286.233 25.6781C286.714 25.4168 287.096 25.0463 287.376 24.5639C287.663 24.0757 287.807 23.5099 287.807 22.8666C287.807 22.2234 287.663 21.6634 287.376 21.1809C287.093 20.6927 286.714 20.3165 286.233 20.058C285.758 19.7967 285.237 19.6675 284.667 19.6675C284.091 19.6675 283.564 19.7967 283.081 20.058C282.606 20.3194 282.229 20.6927 281.947 21.1809C281.665 21.6634 281.527 22.2234 281.527 22.8666C281.527 23.5099 281.668 24.0757 281.947 24.5639C282.229 25.0463 282.606 25.4168 283.081 25.6781C283.564 25.9395 284.094 26.0687 284.667 26.0687ZM284.667 19.1333C285.349 19.1333 285.974 19.2884 286.544 19.5957C287.114 19.8972 287.563 20.3308 287.899 20.8995C288.233 21.4623 288.4 22.1171 288.4 22.8666C288.4 23.6104 288.233 24.2652 287.899 24.8338C287.566 25.3967 287.114 25.8303 286.544 26.1376C285.977 26.4449 285.349 26.6 284.667 26.6C283.985 26.6 283.36 26.4449 282.79 26.1376C282.223 25.8303 281.771 25.3938 281.434 24.8338C281.101 24.2652 280.934 23.6104 280.934 22.8666C280.934 22.1171 281.101 21.4623 281.434 20.8995C281.768 20.3308 282.22 19.8972 282.79 19.5957C283.36 19.2884 283.985 19.1333 284.667 19.1333Z" fill="#242220"/>
<defs>
<clipPath id="clip0">
<rect width="111.067" height="35" fill="white"/>
</clipPath>
</defs>
</svg>
