<svg width="99" height="34" viewBox="0 0 99 34" fill="none" xmlns="http://www.w3.org/2000/svg">
<path fill-rule="evenodd" clip-rule="evenodd" d="M94.87 9.27089H91.2424V8.44929C91.2424 5.90333 92.0965 5.2339 94.5484 5.2339H95.915V0H93.8752C88.3383 0 85.6352 2.54595 85.6352 8.25658V9.26074H79.8773V8.43914C79.8773 5.89319 80.7314 5.22375 83.1833 5.22375H84.5499V0H82.51C76.9732 0 74.2701 2.54595 74.2701 8.25658V9.26074H70.6325V13.6629L70.5822 13.673C69.0649 10.7214 66 8.70286 62.4628 8.70286C59.3377 8.70286 56.5843 10.2852 54.9364 12.6891L54.866 12.6587L56.4236 9.27089H50.746L46.4753 18.7954L42.4659 9.27089H36.0649H36.0046H30.4476V11.6241H30.3773C29.3021 9.86934 27.5536 8.71301 24.7701 8.71301C22.3283 8.71301 19.997 9.93018 18.4595 12.0298L18.3992 11.9994C18.7208 11.0054 18.8715 9.92006 18.8715 8.75357C18.8715 4.04714 15.8669 0.385446 9.28502 0.385446H0V26.5448H5.75792V17.5782H9.28502C13.0231 17.5782 15.6057 16.3813 17.1331 14.4135L17.1934 14.4439C16.8316 15.4887 16.6306 16.6551 16.6306 17.9129C16.6306 23.4409 20.5295 27.1026 24.76 27.1026C27.5435 27.1026 29.292 25.9463 30.3672 24.1915H30.4376V26.5448H36.0448V9.51432H36.1151L43.6818 24.8813L39.3709 34H45.0183L53.5496 15.4988L53.63 15.5394C53.4291 16.29 53.3286 17.0811 53.3286 17.9027C53.3286 22.9845 57.4184 27.0925 62.4628 27.0925C67.5073 27.0925 71.5971 22.9743 71.5971 17.9027C71.5971 16.503 71.2856 15.1742 70.7229 13.9773H74.26V26.5346H79.8672V13.9773H85.6251V26.5346H91.2323V13.9773H94.87V9.27089ZM62.9452 21.9093L63.2567 22.6599C63.2969 22.7613 63.2366 22.8729 63.1261 22.8932C62.905 22.9236 62.694 22.9338 62.4628 22.9338C62.2418 22.9338 62.0207 22.9236 61.7996 22.8932C61.6891 22.8831 61.6288 22.7613 61.669 22.6599L61.9805 21.9093C59.9909 21.6659 58.4434 19.9618 58.4434 17.9027C58.4434 15.6713 60.2421 13.8657 62.4628 13.8657C64.6836 13.8657 66.4823 15.6713 66.4823 17.9027C66.4723 19.972 64.9348 21.676 62.9452 21.9093ZM26.3377 21.9296C24.127 21.9296 22.3283 20.1241 22.3283 17.8926C22.3283 15.6611 24.127 13.8556 26.3377 13.8556C28.5484 13.8556 30.3471 15.6611 30.3471 17.8926C30.3471 20.1241 28.5585 21.9296 26.3377 21.9296ZM8.80268 12.3341H5.75792V5.63961H8.80268C11.1842 5.63961 12.7418 6.5728 12.7418 8.855C12.7418 11.1778 11.1742 12.3341 8.80268 12.3341Z" fill="#898A8E"/>
<path fill-rule="evenodd" clip-rule="evenodd" d="M96.7993 24.6784H96.5984V25.6319H96.2667V23.3496H97.0405C97.4424 23.3496 97.7339 23.6032 97.7339 24.0191C97.7339 24.364 97.5228 24.6074 97.2113 24.6682L97.8946 25.6319H97.4726L96.7993 24.6784ZM96.5984 24.364H96.9802C97.2515 24.364 97.3621 24.222 97.3621 24.0191C97.3621 23.8162 97.2515 23.6641 96.9802 23.6641H96.5984V24.364Z" fill="#898A8E"/>
<path fill-rule="evenodd" clip-rule="evenodd" d="M94.9604 24.4958C94.9604 25.6217 95.8648 26.5346 96.9802 26.5346C98.0956 26.5346 99 25.6217 99 24.4958C99 23.3699 98.0956 22.457 96.9802 22.457C95.8648 22.457 94.9604 23.3699 94.9604 24.4958ZM95.2619 24.4958C95.2619 23.5424 96.0356 22.7613 96.9802 22.7613C97.9248 22.7613 98.6985 23.5424 98.6985 24.4958C98.6985 25.4493 97.9248 26.2303 96.9802 26.2303C96.0356 26.2303 95.2619 25.4493 95.2619 24.4958Z" fill="#898A8E"/>
</svg>
