<svg width="168" height="36" viewBox="0 0 168 36" fill="none" xmlns="http://www.w3.org/2000/svg">
<g clip-path="url(#clip0)">
<path d="M6.24103 26.7806H0V2.77124H9.93542C12.6318 2.77124 14.696 3.47153 16.1282 4.8721C17.5604 6.27267 18.2773 8.24712 18.2773 10.7954C18.2773 13.3421 17.5604 15.3165 16.1282 16.7188C14.696 18.1193 12.6301 18.8196 9.93542 18.8196H6.24103V26.7806ZM6.24103 13.7895H8.31029C10.6024 13.7895 11.7502 12.7915 11.7502 10.7971C11.7502 8.80269 10.6041 7.80465 8.31029 7.80465H6.24103V13.7895Z" fill="#242220"/>
<path d="M31.7534 10.446H37.5486V26.7804H31.7534V24.9657C30.5225 26.516 28.8558 27.2894 26.7549 27.2894C25.5656 27.2894 24.4727 27.0715 23.4747 26.6374C22.4767 26.2032 21.6067 25.5928 20.8632 24.806C20.1196 24.0209 19.5424 23.0977 19.1283 22.0365C18.7141 20.9752 18.5078 19.8192 18.5078 18.565C18.5078 17.3973 18.7091 16.2878 19.1133 15.2382C19.5158 14.1869 20.0797 13.2687 20.8016 12.4836C21.5235 11.6985 22.3835 11.0781 23.3815 10.6206C24.3796 10.1649 25.4824 9.9353 26.6933 9.9353C28.731 9.9353 30.4193 10.6472 31.7567 12.0694V10.6461L31.7534 10.446ZM24.4927 18.565C24.4927 19.0956 24.5875 19.5896 24.7788 20.0454C24.9701 20.5028 25.2296 20.9004 25.5589 21.2397C25.8883 21.579 26.2808 21.8452 26.7366 22.0365C27.1924 22.2277 27.6864 22.3226 28.217 22.3226C28.726 22.3226 29.2084 22.2277 29.6658 22.0365C30.1216 21.8452 30.5142 21.5807 30.8435 21.2397C31.1729 20.9004 31.4373 20.5078 31.6403 20.062C31.8415 19.6162 31.943 19.1388 31.943 18.6298C31.943 18.1208 31.8415 17.6385 31.6403 17.181C31.439 16.7253 31.1729 16.326 30.8435 15.9867C30.5142 15.6474 30.1216 15.3812 29.6658 15.1899C29.2084 14.9987 28.726 14.9038 28.217 14.9038C27.6864 14.9038 27.1924 14.9987 26.7366 15.1899C26.2792 15.3812 25.8866 15.6474 25.5589 15.9867C25.2296 16.326 24.9701 16.7136 24.7788 17.1494C24.5875 17.5836 24.4927 18.056 24.4927 18.565Z" fill="#242220"/>
<path d="M46.597 24.5516L38.6992 10.446H45.386L49.7491 18.8212L53.9841 10.446H60.6077L47.4886 34.9328H41.0246L46.597 24.5516Z" fill="#242220"/>
<path d="M59.7305 18.4703C59.7305 17.261 59.975 16.1298 60.4624 15.0786C60.9497 14.0273 61.6301 13.1158 62.5 12.3406C63.37 11.5655 64.4046 10.955 65.6056 10.5093C66.8049 10.0635 68.1156 9.84058 69.5378 9.84058C70.9384 9.84058 72.2391 10.0585 73.4384 10.4926C74.6378 10.9284 75.6774 11.5322 76.559 12.3074C77.4389 13.0825 78.1242 14.0057 78.6132 15.0769C79.1023 16.1498 79.3451 17.3325 79.3451 18.6266C79.3451 19.9224 79.0956 21.1051 78.5966 22.1763C78.0976 23.2492 77.4123 24.1723 76.5423 24.9458C75.6724 25.721 74.6261 26.3198 73.4052 26.7456C72.1843 27.1698 70.8635 27.3827 69.4413 27.3827C68.0408 27.3827 66.745 27.1698 65.5557 26.7456C64.3663 26.3214 63.3433 25.716 62.4834 24.9309C61.6234 24.1457 60.9497 23.2059 60.4607 22.1131C59.9733 21.0236 59.7305 19.8076 59.7305 18.4703ZM65.8118 18.5335C65.8118 19.0857 65.9116 19.5897 66.1146 20.0455C66.3158 20.5029 66.582 20.9005 66.9113 21.2398C67.2407 21.5791 67.6332 21.8453 68.089 22.0366C68.5448 22.2278 69.0288 22.3227 69.5378 22.3227C70.0468 22.3227 70.5292 22.2278 70.9866 22.0366C71.4424 21.8453 71.8349 21.5808 72.1643 21.2398C72.4936 20.9005 72.7581 20.5029 72.9611 20.0455C73.1623 19.5897 73.2638 19.0957 73.2638 18.5651C73.2638 18.0561 73.1623 17.5737 72.9611 17.1163C72.7598 16.6605 72.4936 16.2613 72.1643 15.9219C71.8349 15.5826 71.4424 15.3165 70.9866 15.1252C70.5292 14.9339 70.0468 14.8391 69.5378 14.8391C69.0288 14.8391 68.5448 14.9339 68.089 15.1252C67.6316 15.3165 67.239 15.5826 66.9113 15.9219C66.582 16.2613 66.3175 16.6538 66.1146 17.0996C65.9116 17.5471 65.8118 18.0245 65.8118 18.5335Z" fill="#242220"/>
<path d="M87.6259 15.7939V26.7806H81.8622V15.2533H79.793V10.4444H81.8622V7.99258C81.8622 6.63359 81.9903 5.55239 82.2448 4.74398C82.4561 4.06532 82.797 3.43323 83.2645 2.84938C83.7319 2.26553 84.2775 1.76153 84.9046 1.33736C85.53 0.913197 86.2053 0.583848 86.9272 0.350973C87.6492 0.118098 88.3594 0 89.0614 0C89.5487 0 90.0012 0.0532269 90.4154 0.159684C90.8295 0.26614 91.2487 0.41418 91.6729 0.60547V5.63722C91.2903 5.44593 90.9343 5.30288 90.6067 5.20807C90.2773 5.11326 89.933 5.06502 89.572 5.06502C89.3375 5.06502 89.0996 5.10161 88.8551 5.17646C88.6106 5.25132 88.3827 5.40435 88.1698 5.63889C87.9569 5.87342 87.8138 6.20776 87.7406 6.64191C87.6658 7.07772 87.6292 7.66656 87.6292 8.40843V10.4461H91.6729V15.2549H87.6259V15.7939Z" fill="#242220"/>
<path d="M100.018 15.4429V26.7806H94.2541V15.2533H91.5195V10.4444H94.2541V7.99258C94.2541 6.63359 94.3822 5.55239 94.6367 4.74398C94.848 4.06532 95.189 3.43323 95.6564 2.84938C96.1238 2.26553 96.6694 1.76153 97.2965 1.33736C97.9219 0.913197 98.5972 0.583848 99.3191 0.350973C100.041 0.118098 100.751 0 101.453 0C101.941 0 102.393 0.0532269 102.807 0.159684C103.221 0.26614 103.641 0.41418 104.065 0.60547V5.63722C103.682 5.44593 103.326 5.30288 102.999 5.20807C102.669 5.11326 102.325 5.06502 101.964 5.06502C101.729 5.06502 101.492 5.10161 101.247 5.17646C101.003 5.25132 100.775 5.40435 100.562 5.63889C100.349 5.87342 100.206 6.20776 100.133 6.64191C100.058 7.07772 100.021 7.66656 100.021 8.40843V10.4461H104.065V15.2549H100.018V15.4429Z" fill="#242220"/>
<path d="M107.039 22.6596H107.714C107.942 22.6596 108.115 22.6106 108.237 22.5098C108.358 22.409 108.418 22.265 108.418 22.0778C108.418 21.6948 108.185 21.5048 107.714 21.5048H107.039V22.6596ZM109.261 22.075C109.261 22.3428 109.186 22.5789 109.039 22.7805C108.892 22.9763 108.684 23.1146 108.416 23.2038L109.403 24.9346H108.476L107.602 23.2931H107.039V24.9346H106.205V20.8482H107.804C108.274 20.8482 108.632 20.9547 108.88 21.1707C109.134 21.378 109.261 21.6804 109.261 22.075ZM107.63 26.1412C108.202 26.1412 108.724 26.0116 109.201 25.7496C109.683 25.4875 110.067 25.116 110.347 24.6322C110.635 24.1427 110.78 23.5753 110.78 22.9303C110.78 22.2852 110.635 21.7236 110.347 21.2398C110.064 20.7503 109.683 20.373 109.201 20.1138C108.724 19.8518 108.202 19.7222 107.63 19.7222C107.053 19.7222 106.525 19.8518 106.04 20.1138C105.564 20.3759 105.186 20.7503 104.903 21.2398C104.62 21.7236 104.481 22.2852 104.481 22.9303C104.481 23.5753 104.623 24.1427 104.903 24.6322C105.186 25.116 105.564 25.4875 106.04 25.7496C106.525 26.0116 107.056 26.1412 107.63 26.1412ZM107.63 19.1865C108.315 19.1865 108.941 19.342 109.512 19.6502C110.084 19.9525 110.534 20.3874 110.872 20.9576C111.207 21.522 111.374 22.1786 111.374 22.9303C111.374 23.6761 111.207 24.3327 110.872 24.9029C110.537 25.4674 110.084 25.9022 109.512 26.2103C108.944 26.5185 108.315 26.674 107.63 26.674C106.946 26.674 106.32 26.5185 105.748 26.2103C105.18 25.9022 104.727 25.4645 104.389 24.9029C104.054 24.3327 103.887 23.6761 103.887 22.9303C103.887 22.1786 104.054 21.522 104.389 20.9576C104.724 20.3874 105.177 19.9525 105.748 19.6502C106.32 19.342 106.946 19.1865 107.63 19.1865Z" fill="#242021"/>
</g>
<path d="M117.461 19.8887V26.8196H118.48V26.1265C118.833 26.6711 119.428 26.9186 120.033 26.9186C121.395 26.9186 122.303 25.9384 122.303 24.5027C122.303 23.067 121.445 22.0274 120.134 22.0274C119.478 22.0274 118.843 22.3937 118.52 22.9581V19.8887H117.461ZM118.48 24.5027C118.48 23.5621 119.156 22.968 119.862 22.968C120.618 22.968 121.244 23.5918 121.244 24.5027C121.244 25.4136 120.618 25.9978 119.862 25.9978C119.156 25.9978 118.48 25.4433 118.48 24.5027Z" fill="#242220"/>
<path d="M126.413 22.1264L125.021 24.9977L123.719 22.1264H122.58L124.466 26.1265L123.185 28.78H124.294L127.522 22.1264H126.413Z" fill="#242220"/>
<path d="M138.738 14.1633C138.738 18.505 142.249 22.0159 146.591 22.0159C150.933 22.0159 154.443 18.4782 154.443 14.1633V14.0293H151.522V14.1633C151.522 16.897 149.298 19.0946 146.591 19.0946C143.857 19.0946 141.659 16.8702 141.659 14.1633V14.0293H138.738V14.1633Z" fill="#242220"/>
<path fill-rule="evenodd" clip-rule="evenodd" d="M146.591 27.3761C139.167 27.3761 133.137 21.3459 133.137 13.9221C133.137 6.49821 139.167 0.468018 146.591 0.468018C154.015 0.468018 160.045 6.49821 160.045 13.9221C160.045 21.3459 154.015 27.3761 146.591 27.3761ZM146.591 3.57692C140.882 3.57692 136.246 8.21347 136.246 13.9221C136.246 19.6306 140.882 24.2672 146.591 24.2672C152.299 24.2672 156.936 19.6306 156.936 13.9221C156.936 8.21347 152.326 3.57692 146.591 3.57692Z" fill="#242220"/>
<path d="M163.664 22.8937H164.339C164.567 22.8937 164.74 22.8447 164.862 22.7439C164.983 22.6431 165.043 22.4992 165.043 22.312C165.043 21.929 164.81 21.7389 164.339 21.7389H163.664V22.8937ZM165.886 22.3091C165.886 22.5769 165.811 22.8131 165.664 23.0146C165.517 23.2105 165.309 23.3487 165.041 23.438L166.028 25.1687H165.101L164.227 23.5272H163.664V25.1687H162.83V21.0823H164.429C164.899 21.0823 165.257 21.1888 165.505 21.4048C165.759 21.6122 165.886 21.9146 165.886 22.3091ZM164.255 26.3754C164.827 26.3754 165.349 26.2458 165.826 25.9837C166.308 25.7216 166.692 25.3502 166.972 24.8663C167.26 24.3768 167.405 23.8095 167.405 23.1644C167.405 22.5193 167.26 21.9578 166.972 21.4739C166.689 20.9844 166.308 20.6071 165.826 20.3479C165.349 20.0859 164.827 19.9563 164.255 19.9563C163.678 19.9563 163.15 20.0859 162.665 20.3479C162.189 20.61 161.811 20.9844 161.528 21.4739C161.245 21.9578 161.106 22.5193 161.106 23.1644C161.106 23.8095 161.248 24.3768 161.528 24.8663C161.811 25.3502 162.189 25.7216 162.665 25.9837C163.15 26.2458 163.681 26.3754 164.255 26.3754ZM164.255 19.4207C164.94 19.4207 165.566 19.5762 166.137 19.8843C166.709 20.1867 167.159 20.6215 167.497 21.1917C167.832 21.7562 167.999 22.4128 167.999 23.1644C167.999 23.9103 167.832 24.5668 167.497 25.137C167.162 25.7015 166.709 26.1363 166.137 26.4445C165.569 26.7526 164.94 26.9081 164.255 26.9081C163.571 26.9081 162.945 26.7526 162.373 26.4445C161.805 26.1363 161.352 25.6986 161.014 25.137C160.679 24.5668 160.512 23.9103 160.512 23.1644C160.512 22.4128 160.679 21.7562 161.014 21.1917C161.349 20.6215 161.802 20.1867 162.373 19.8843C162.945 19.5762 163.571 19.4207 164.255 19.4207Z" fill="#242021"/>
<defs>
<clipPath id="clip0">
<rect width="111.376" height="35.0975" fill="white"/>
</clipPath>
</defs>
</svg>
